# xmcd
#
# Track frame offsets:
#	150
#	22965
#	52042
#	73613
#	95245
#	113705
#	132098
#	150952
#	168301
#	185983
#	201530
#	222284
#	233581
#
# Disc length: 3363 seconds
#
# Revision: 1
# Processed by: cddbd v1.5PL3 Copyright (c) Steve Scherf et al.
# Submitted via: EasyCDDAExtractor 7.0.5.1
#
DISCID=b80d210d
DTITLE=Carl Weathersby - Restless Feeling
DYEAR=1998
DGENRE=Blues
TTITLE0=Matchbox Holds My Clothes
TTITLE1=A Real Mutha Huh Ya
TTITLE2=It's You That I Want
TTITLE3=Restless Feeling
TTITLE4=Woman Song
TTITLE5=Wheel of Fortune
TTITLE6=We All Wanna Boogie
TTITLE7=Meadville Mississippi
TTITLE8=Everything I Do
TTITLE9=Rhymes
TTITLE10=Tired of Being Alone
TTITLE11=Glory Be
TTITLE12=She's Gone
EXTD=
EXTT0=
EXTT1=
EXTT2=
EXTT3=
EXTT4=
EXTT5=
EXTT6=
EXTT7=
EXTT8=
EXTT9=
EXTT10=
EXTT11=
EXTT12=
PLAYORDER=
